<svg xmlns="http://www.w3.org/2000/svg" viewBox="0 0 1600 900" width="1600" height="900"><defs><filter id="b" x="-50%" y="-50%" width="200%" height="200%"><feGaussianBlur stdDeviation="81"/></filter><linearGradient id="f" x1="0" y1="1" x2="0" y2="0"><stop offset="0" stop-color="#000" stop-opacity="0.35"/><stop offset="0.5" stop-color="#000" stop-opacity="0"/></linearGradient></defs><rect width="1600" height="900" fill="#2b0806"/><circle cx="288" cy="439" r="246" fill="#ff453a" opacity="0.71" filter="url(#b)"/><circle cx="1471" cy="789" r="361" fill="#ff9f0a" opacity="0.79" filter="url(#b)"/><circle cx="1289" cy="193" r="249" fill="#ff453a" opacity="0.61" filter="url(#b)"/><circle cx="934" cy="606" r="268" fill="#ff9f0a" opacity="0.77" filter="url(#b)"/><circle cx="913" cy="417" r="363" fill="#ff453a" opacity="0.59" filter="url(#b)"/><g transform="translate(800,450)" opacity="0.15" stroke="#fff" stroke-width="3" fill="none" stroke-linejoin="round"><path d="M-58,10 l12,-30 a12,12 0 0 1 11,-8 h70 a12,12 0 0 1 11,8 l12,30 v22 h-116 Z"/><circle cx="-34" cy="32" r="12"/><circle cx="34" cy="32" r="12"/></g><rect width="1600" height="900" fill="url(#f)"/></svg>