<svg xmlns="http://www.w3.org/2000/svg" viewBox="0 0 1200 900" width="1200" height="900"><defs><filter id="b" x="-50%" y="-50%" width="200%" height="200%"><feGaussianBlur stdDeviation="81"/></filter><linearGradient id="f" x1="0" y1="1" x2="0" y2="0"><stop offset="0" stop-color="#000" stop-opacity="0.35"/><stop offset="0.5" stop-color="#000" stop-opacity="0"/></linearGradient></defs><rect width="1200" height="900" fill="#0a2647"/><circle cx="430" cy="899" r="323" fill="#0a84ff" opacity="0.60" filter="url(#b)"/><circle cx="1151" cy="567" r="265" fill="#5ac8fa" opacity="0.83" filter="url(#b)"/><circle cx="868" cy="766" r="284" fill="#0a84ff" opacity="0.59" filter="url(#b)"/><circle cx="1015" cy="240" r="393" fill="#5ac8fa" opacity="0.71" filter="url(#b)"/><circle cx="965" cy="176" r="308" fill="#0a84ff" opacity="0.64" filter="url(#b)"/><g transform="translate(600,450)" opacity="0.15" stroke="#fff" stroke-width="3" fill="none" stroke-linejoin="round"><rect x="-40" y="-40" width="80" height="80" rx="14"/><rect x="-18" y="-18" width="36" height="36" rx="6"/><path d="M-40 -20H-58M-40 0H-58M-40 20H-58M40 -20H58M40 0H58M40 20H58M-20 -40V-58M0 -40V-58M20 -40V-58M-20 40V58M0 40V58M20 40V58"/></g><rect width="1200" height="900" fill="url(#f)"/></svg>